<?xml version="1.0" encoding="UTF-8" standalone="no"?>
<svg
   id="Layer_1"
   data-name="Layer 1"
   viewBox="0 0 24 24"
   width="512"
   height="512"
   version="1.1"
   sodipodi:docname="icono_pie.svg"
   inkscape:version="1.3.2 (091e20e, 2023-11-25, custom)"
   xmlns:inkscape="http://www.inkscape.org/namespaces/inkscape"
   xmlns:sodipodi="http://sodipodi.sourceforge.net/DTD/sodipodi-0.dtd"
   xmlns="http://www.w3.org/2000/svg"
   xmlns:svg="http://www.w3.org/2000/svg">
  <defs
     id="defs1" />
  <sodipodi:namedview
     id="namedview1"
     pagecolor="#ffffff"
     bordercolor="#000000"
     borderopacity="0.25"
     inkscape:showpageshadow="2"
     inkscape:pageopacity="0.0"
     inkscape:pagecheckerboard="0"
     inkscape:deskcolor="#d1d1d1"
     inkscape:zoom="1.5175781"
     inkscape:cx="256"
     inkscape:cy="256"
     inkscape:window-width="1920"
     inkscape:window-height="991"
     inkscape:window-x="-9"
     inkscape:window-y="-9"
     inkscape:window-maximized="1"
     inkscape:current-layer="Layer_1" />
  <path
     d="m 10.504444,0.0037476 h 3 c 1.93,0 3.5,1.57 3.5,3.5 v 7.5000004 h 1.64 c 1.37,0 2.59,0.82 3.1,2.08 0.51,1.259999 0.23,2.699999 -0.73,3.659999 l -5.97,6 c -1.68,1.67 -4.4,1.68 -6.0800002,0 0,0 -5.97,-6 -5.97,-6 -0.96,-0.96 -1.25,-2.4 -0.73,-3.659999 0.52,-1.26 1.73,-2.08 3.1,-2.08 h 1.65 V 3.5037476 c 0,-1.93 1.57,-3.5 3.5000002,-3.5 z m 5,14.0000004 c -0.83,0 -1.5,-0.67 -1.5,-1.5 V 3.5037476 c 0,-0.28 -0.22,-0.5 -0.5,-0.5 h -3 c -0.27,0 -0.5,0.23 -0.5,0.5 v 9.0000004 c 0,0.83 -0.6700002,1.5 -1.5000002,1.5 h -3.14 c -0.15,0 -0.27,0.08 -0.33,0.229999 -0.06,0.15 -0.03,0.28 0.08,0.4 l 5.9700002,5.99 c 0.51,0.5 1.33,0.5 1.83,0 l 5.97,-6 c 0.12,-0.12 0.14,-0.25 0.08,-0.4 -0.06,-0.15 -0.17,-0.219999 -0.34,-0.229999 h -3.13 z"
     id="path1" />
</svg>
